HIERARCHY
ROOT bottle1_body
{
	OFFSET 0.000000 0.000000 0.000000
	CHANNELS 6 Xposition Yposition Zposition Yrotation Xrotation Zrotation
	End Site
	{
		OFFSET 0.000000 0.000000 0.000000
	}
}
MOTION
Frames: 174
Frame Time: 0.008333334
1.752312 4.622298 4.011339 -155.030700 3.619368 3.906393 
1.752102 4.622291 4.012049 -155.046200 3.598203 3.902808 
1.751892 4.622283 4.012760 -155.061800 3.577037 3.899229 
1.751681 4.622277 4.013471 -155.077400 3.555870 3.895656 
1.751471 4.622270 4.014182 -155.092900 3.534704 3.892089 
1.751261 4.622262 4.014892 -155.108500 3.513535 3.888526 
1.751711 4.622351 4.014729 -154.982200 3.591484 3.841280 
1.752165 4.622482 4.014524 -155.070200 3.727122 3.808471 
1.751890 4.622434 4.012770 -155.016400 3.555891 3.883098 
1.752234 4.622371 4.012091 -155.014000 3.596172 3.890432 
1.752456 4.622238 4.011352 -155.042200 3.606135 3.900968 
1.752770 4.622200 4.010844 -155.054400 3.630942 3.908096 
1.753009 4.622272 4.010196 -155.030100 3.644439 3.903317 
1.753012 4.622290 4.009663 -155.028000 3.656460 3.908090 
1.753070 4.622240 4.009362 -155.014500 3.693497 3.983833 
1.752893 4.622314 4.008850 -155.019500 3.670813 3.921205 
1.752768 4.622241 4.008773 -155.015600 3.648725 3.932503 
1.752629 4.622363 4.009080 -155.049900 3.680406 3.882691 
1.752653 4.622310 4.009547 -155.045400 3.658566 3.879298 
1.752534 4.622266 4.010178 -155.056000 3.654588 3.867179 
1.752422 4.622149 4.010689 -155.048100 3.610702 3.899915 
1.752408 4.622256 4.011266 -155.053500 3.579566 3.889727 
1.752329 4.622369 4.011778 -155.037700 3.564928 3.875313 
1.752234 4.622406 4.011992 -155.042000 3.572732 3.861115 
1.752230 4.622380 4.011933 -155.040200 3.568340 3.858333 
1.752431 4.622299 4.011449 -155.047100 3.563847 3.882012 
1.752706 4.622327 4.010611 -155.061400 3.618459 3.875438 
1.753060 4.622174 4.009387 -155.055600 3.655647 3.934132 
1.753844 4.622159 4.007655 -155.069000 3.677194 3.962891 
1.754863 4.622110 4.005531 -155.048400 3.750868 3.988128 
1.755851 4.622379 4.003106 -155.029200 3.842362 4.081703 
1.756860 4.622368 3.999249 -155.061200 3.891206 4.079219 
1.758531 4.622170 3.994973 -154.967700 3.936449 4.137825 
1.760377 4.622599 3.990903 -155.167100 4.055478 4.249098 
1.761978 4.622325 3.986914 -155.192100 4.116077 4.338097 
1.762625 4.622287 3.983991 -155.597000 4.118280 4.311573 
1.762990 4.622208 3.982761 -155.864700 4.118677 4.262565 
1.762639 4.622159 3.982693 -156.191500 4.119865 4.198164 
1.762071 4.621868 3.983228 -156.665300 4.064014 4.037789 
1.760973 4.621637 3.984283 -157.214600 3.985563 4.000768 
1.758821 4.621971 3.984471 -157.997700 3.862617 4.116809 
1.758585 4.621822 3.985092 -158.488900 3.837759 4.033162 
1.758650 4.621778 3.985462 -158.984600 3.845525 3.976717 
1.759333 4.621827 3.985371 -159.474100 3.817865 3.931687 
1.760072 4.621883 3.984757 -159.910500 3.804118 3.967286 
1.760859 4.621789 3.983330 -160.289000 3.784967 3.943567 
1.760056 4.621775 3.980176 -160.734800 3.841425 3.947421 
1.759766 4.621671 3.975543 -161.086900 3.984379 3.922154 
1.760002 4.621309 3.969807 -161.566700 4.078530 3.946164 
1.759439 4.621011 3.962633 -162.314100 4.206853 3.980953 
1.759349 4.620757 3.955664 -163.251300 4.354245 4.040139 
1.759280 4.620969 3.949572 -164.308800 4.359504 4.076268 
1.757695 4.620638 3.945999 -165.521100 4.506854 4.102742 
1.754907 4.620404 3.944395 -166.862200 4.446869 3.926667 
1.752362 4.620144 3.943056 -168.411100 4.395612 3.737246 
1.750358 4.620200 3.941599 -169.993300 4.302480 3.565720 
1.748205 4.619971 3.938468 -171.708300 4.295472 3.535818 
1.747910 4.619564 3.932132 -173.348900 4.394765 3.496501 
1.747645 4.619143 3.923495 -174.987800 4.584172 3.468106 
1.747972 4.618931 3.914275 -176.743800 4.726075 3.481935 
1.748529 4.618704 3.905054 -178.681800 4.837024 3.488468 
1.747434 4.618743 3.896621 179.354000 4.937770 3.472387 
1.745968 4.618169 3.889642 177.173200 4.978827 3.356250 
1.743246 4.618143 3.882900 174.760200 4.997452 3.264356 
1.739952 4.617911 3.877065 172.345100 5.016809 3.122155 
1.738261 4.617293 3.872237 169.852500 4.948647 2.978985 
1.736144 4.617452 3.866890 167.302100 4.951283 2.752949 
1.734154 4.617235 3.861425 164.697200 4.973294 2.546664 
1.731714 4.617183 3.856400 161.980700 4.876568 2.422212 
1.729014 4.617018 3.851997 159.217400 4.884334 2.204555 
1.725910 4.616678 3.846375 156.440600 4.981015 2.082788 
1.723866 4.616621 3.841008 153.572500 5.071685 1.976572 
1.724069 4.616805 3.836762 150.679100 5.237143 1.926520 
1.722991 4.616393 3.832331 147.705900 5.334315 1.889601 
1.721012 4.616273 3.829159 144.550800 5.347842 1.739485 
1.716740 4.615774 3.826117 141.663900 5.221877 1.628964 
1.712100 4.616009 3.822872 138.823600 5.098354 1.316419 
1.709120 4.615965 3.820986 136.167700 5.079229 1.175161 
1.706717 4.616020 3.817478 133.750700 4.987907 0.963929 
1.701136 4.615402 3.815186 131.202000 4.927420 1.000952 
1.695614 4.615766 3.812393 128.922900 4.951185 0.928713 
1.689242 4.615811 3.809611 126.895300 4.878973 0.692813 
1.681660 4.616229 3.807211 124.947400 4.890106 0.691066 
1.674091 4.616301 3.803833 123.145000 5.004522 0.518856 
1.667109 4.616233 3.800874 121.665300 4.941656 0.544041 
1.659966 4.616324 3.796571 120.190800 4.983007 0.505952 
1.652975 4.616142 3.792286 119.032700 4.893013 0.452236 
1.646473 4.616430 3.786807 118.127400 4.851406 0.390975 
1.640085 4.616620 3.781135 117.410700 4.854171 0.307880 
1.634463 4.616289 3.775961 116.828700 4.806391 0.337298 
1.629063 4.616252 3.771409 116.306400 4.872121 0.360771 
1.624961 4.616244 3.767102 115.938100 4.744854 0.311525 
1.620453 4.616237 3.763859 115.471300 4.838889 0.265498 
1.616154 4.616385 3.761670 114.936000 4.863312 0.289446 
1.612515 4.616732 3.759485 114.558300 4.868754 0.203055 
1.608892 4.616704 3.758615 114.086500 4.821994 0.273923 
1.605260 4.616735 3.757373 113.600300 4.808636 0.266319 
1.601871 4.616946 3.756178 113.218900 4.918797 0.166712 
1.599573 4.616769 3.755585 113.058200 4.888338 0.124275 
1.598050 4.616692 3.755922 113.042200 4.823979 0.129021 
1.597463 4.616922 3.755986 113.054200 4.846930 0.118726 
1.598441 4.616765 3.756037 113.079600 4.831079 0.150558 
1.600734 4.616903 3.755627 113.080700 4.924875 0.178395 
1.604095 4.616868 3.756400 113.192700 4.928156 0.255691 
1.608012 4.616893 3.757434 113.397500 4.966751 0.363137 
1.610699 4.616947 3.759101 113.543700 5.013733 0.399527 
1.612434 4.617445 3.760714 113.640700 5.111306 0.418421 
1.613687 4.617496 3.762290 113.780900 5.139413 0.466891 
1.614745 4.617261 3.763743 113.957300 5.122157 0.540669 
1.615591 4.617188 3.764805 114.075000 5.091571 0.520600 
1.615636 4.617243 3.765660 114.146000 5.086419 0.509852 
1.615105 4.617155 3.766425 114.240600 5.040016 0.488332 
1.614104 4.617215 3.766581 114.272900 5.063693 0.402973 
1.612390 4.617046 3.766305 114.299200 4.979740 0.338665 
1.611074 4.616889 3.766519 114.380200 4.870749 0.369212 
1.610010 4.616933 3.766524 114.406700 4.845137 0.361615 
1.609350 4.617050 3.766414 114.391500 4.894880 0.313109 
1.609498 4.617047 3.766671 114.371400 4.902700 0.324667 
1.610429 4.617199 3.767029 114.392300 4.914015 0.298604 
1.611457 4.617168 3.767091 114.385600 4.938730 0.287370 
1.612614 4.617123 3.767503 114.376400 4.999247 0.339972 
1.613095 4.616831 3.767413 114.386600 4.926875 0.421137 
1.612833 4.617071 3.767119 114.336100 4.990142 0.356008 
1.612397 4.617120 3.766871 114.377600 4.969124 0.302662 
1.611275 4.617186 3.766709 114.395400 4.936820 0.294781 
1.609536 4.617180 3.765863 114.334500 4.936965 0.289520 
1.608213 4.617045 3.764372 114.393000 4.854376 0.289353 
1.608158 4.617171 3.762900 114.572900 4.894010 0.202738 
1.610690 4.616893 3.759952 115.052900 4.950276 0.267699 
1.614816 4.616373 3.758314 115.840200 4.947213 0.365403 
1.618450 4.616014 3.756543 116.844500 4.920425 0.464183 
1.621473 4.616031 3.754455 117.956100 4.948765 0.466024 
1.624125 4.615887 3.753893 119.215300 4.939915 0.522967 
1.626882 4.615724 3.754073 120.498700 4.946929 0.633799 
1.631038 4.615625 3.754238 121.830500 5.027737 0.660994 
1.635793 4.615607 3.755538 123.221100 5.122704 0.735667 
1.640738 4.615500 3.757983 124.680000 5.172368 0.843485 
1.645647 4.615637 3.761379 126.313500 5.185078 0.934085 
1.650454 4.615780 3.764423 128.053500 5.226928 0.970471 
1.654067 4.615554 3.768015 129.895500 5.253851 1.139575 
1.657260 4.615841 3.771999 131.723900 5.262166 0.956210 
1.658958 4.615538 3.776065 133.601000 5.165402 1.044757 
1.661639 4.615816 3.779078 135.591100 5.031001 1.124170 
1.666350 4.615958 3.781156 137.885500 5.097472 1.356594 
1.671065 4.615480 3.782676 140.450300 5.137618 1.463686 
1.675832 4.615659 3.785434 143.309500 5.246511 1.610456 
1.678926 4.616234 3.788231 146.309400 5.392332 1.792565 
1.679776 4.616486 3.791910 149.177100 5.384239 1.859734 
1.678504 4.616703 3.796015 151.770300 5.185142 1.950911 
1.677122 4.616915 3.799864 154.044500 5.059898 2.021578 
1.676080 4.616570 3.802788 155.892700 4.941461 2.094032 
1.674727 4.616989 3.803560 157.511900 4.961676 2.237613 
1.675086 4.617034 3.803345 158.957400 4.967298 2.274343 
1.675906 4.616733 3.802250 160.271200 5.041313 2.416576 
1.677287 4.616512 3.799263 161.570800 5.137966 2.555644 
1.679400 4.616455 3.796648 162.840100 5.265789 2.603904 
1.680350 4.616416 3.796046 164.031000 5.282046 2.745433 
1.679382 4.616135 3.795221 165.194500 5.236483 2.766016 
1.677773 4.615888 3.796080 166.434400 5.091118 2.789150 
1.676737 4.616158 3.797626 167.620900 4.875493 2.743634 
1.675404 4.616320 3.798214 168.821100 4.707258 2.764281 
1.674661 4.616295 3.797348 169.920400 4.680282 2.809778 
1.674573 4.615948 3.795133 171.012200 4.677449 2.902462 
1.675550 4.616182 3.792714 171.972100 4.860882 2.971525 
1.676150 4.616285 3.789924 172.850100 4.931385 3.096906 
1.676219 4.616516 3.788150 173.521700 5.003774 3.194067 
1.675950 4.616546 3.787576 174.100200 4.947672 3.277312 
1.675001 4.616405 3.788179 174.447100 4.912889 3.232362 
1.674511 4.616508 3.789182 174.714300 4.811586 3.224273 
1.674988 4.616335 3.790040 174.835200 4.853769 3.071616 
1.675230 4.616273 3.790570 174.849800 4.798066 3.073673 
1.674967 4.616577 3.790367 174.790000 4.831179 3.127135 
1.674600 4.616744 3.790067 174.699500 4.823569 3.176722 
1.674564 4.616752 3.789949 174.621400 4.825543 3.172989 
